<?xml version="1.0" encoding="UTF-8" standalone="no"?>
<svg id="svg2" xmlns:rdf="http://www.w3.org/1999/02/22-rdf-syntax-ns#" xmlns="http://www.w3.org/2000/svg" viewBox="0 0 450 450" version="1.1" xmlns:cc="http://creativecommons.org/ns#" xmlns:xlink="http://www.w3.org/1999/xlink" xmlns:dc="http://purl.org/dc/elements/1.1/">
<defs id="defs32">
<linearGradient id="b" y2="40" gradientUnits="userSpaceOnUse" x2="0" gradientTransform="scale(2 .5)">
<stop id="stop5" stop-color="#bbb" stop-opacity=".1" offset="0"/>
<stop id="stop7" stop-opacity=".1" offset="1"/>
</linearGradient>
</defs>
<mask id="c">
<rect id="rect10" rx="3" height="20" width="80" y="0" x="0" fill="#fff"/>
</mask>
<g id="g3362" transform="matrix(5.1825 0 0 5.1825 17.667 -189.57)">
<g id="g12" mask="url(#c)" transform="translate(0,70)">
<path id="path14" d="m0 0h37v20h-37z" fill="#555"/>
<path id="path16" d="m37 0h43v20h-43z" fill="#e05d44"/>
<path id="path18" d="m0 0h80v20h-80z" fill="url(#b)"/>
</g>
<g id="g20" fill="#fff" transform="translate(0,70)" font-size="11">
<g id="text22" fill="#010101" fill-opacity=".3">
<path id="path3370" d="m10.331 11.998q0-1.0903-0.45117-1.708-0.4458-0.62305-1.23-0.62305-0.78418 0-1.2354 0.62305-0.4458 0.61768-0.4458 1.708t0.4458 1.7134q0.45117 0.61768 1.2354 0.61768 0.78418 0 1.23-0.61768 0.45117-0.62305 0.45117-1.7134zm-3.3627-2.1005q0.3115-0.5371 0.7841-0.795 0.4781-0.2631 1.1387-0.2631 1.0957 0 1.7778 0.87012 0.6875 0.87012 0.6875 2.2881t-0.6875 2.2881q-0.68213 0.87012-1.7778 0.87012-0.66064 0-1.1387-0.25781-0.47266-0.26318-0.78418-0.80029v0.90234h-0.99365v-8.3574h0.99365v3.2549z"/>
<path id="path3372" d="m12.893 12.626v-3.6416h0.98828v3.604q0 0.854 0.33301 1.2837 0.33301 0.42432 0.99902 0.42432 0.80029 0 1.2622-0.51025 0.46728-0.51025 0.46728-1.3911v-3.4106h0.98828v6.0156h-0.98828v-0.92383q-0.35986 0.54785-0.83789 0.81641-0.47266 0.26318-1.1011 0.26318-1.0366 0-1.5737-0.64453-0.53711-0.64453-0.53711-1.8853zm2.4868-3.7866z"/>
<path id="path3374" d="m19.977 8.9844h0.98828v6.0156h-0.98828v-6.0156zm0-2.3418h0.98828v1.2515h-0.98828v-1.2515z"/>
<path id="path3376" d="m23.028 6.6426h0.98828v8.3574h-0.98828v-8.3574z"/>
<path id="path3378" d="m30.037 9.8975v-3.2549h0.98828v8.3574h-0.98828v-0.90234q-0.31152 0.53711-0.78955 0.80029-0.47266 0.25781-1.1387 0.25781-1.0903 0-1.7778-0.87012-0.68213-0.87012-0.68213-2.2881t0.68213-2.2881q0.6875-0.87012 1.7778-0.87012 0.66602 0 1.1387 0.26318 0.47803 0.25781 0.78955 0.79492zm-3.3677 2.1001q0 1.0903 0.4458 1.7134 0.45117 0.61768 1.2354 0.61768 0.78418 0 1.2354-0.61768 0.45117-0.62305 0.45117-1.7134 0-1.0903-0.45117-1.708-0.45117-0.62305-1.2354-0.62305-0.78418 0-1.2354 0.62305-0.4458 0.61768-0.4458 1.708z"/>
</g>
<g id="text24">
<path id="path3358" d="m10.331 10.998q0-1.0903-0.45117-1.708-0.4458-0.62305-1.23-0.62305-0.78418 0-1.2354 0.62305-0.4458 0.61768-0.4458 1.708t0.4458 1.7134q0.45117 0.61768 1.2354 0.61768 0.78418 0 1.23-0.61768 0.45117-0.62305 0.45117-1.7134zm-3.3627-2.1005q0.3115-0.5371 0.7841-0.795 0.4781-0.2631 1.1387-0.2631 1.0957 0 1.7778 0.87012 0.6875 0.87012 0.6875 2.2881t-0.6875 2.2881q-0.68213 0.87012-1.7778 0.87012-0.66064 0-1.1387-0.25781-0.47266-0.26318-0.78418-0.80029v0.90234h-0.99365v-8.3574h0.99365v3.2549z"/>
<path id="path3360" d="m12.893 11.626v-3.6416h0.98828v3.604q0 0.854 0.33301 1.2837 0.33301 0.42432 0.99902 0.42432 0.80029 0 1.2622-0.51025 0.46728-0.51025 0.46728-1.3911v-3.4106h0.98828v6.0156h-0.98828v-0.92383q-0.35986 0.54785-0.83789 0.81641-0.47266 0.26318-1.1011 0.26318-1.0366 0-1.5737-0.64453-0.53711-0.64453-0.53711-1.8853zm2.4868-3.7866z"/>
<path id="path3362" d="m19.977 7.9844h0.98828v6.0156h-0.98828v-6.0156zm0-2.3418h0.98828v1.2515h-0.98828v-1.2515z"/>
<path id="path3364" d="m23.028 5.6426h0.98828v8.3574h-0.98828v-8.3574z"/>
<path id="path3366" d="m30.037 8.8975v-3.2549h0.98828v8.3574h-0.98828v-0.90234q-0.31152 0.53711-0.78955 0.80029-0.47266 0.25781-1.1387 0.25781-1.0903 0-1.7778-0.87012-0.68213-0.87012-0.68213-2.2881t0.68213-2.2881q0.6875-0.87012 1.7778-0.87012 0.66602 0 1.1387 0.26318 0.47803 0.25781 0.78955 0.79492zm-3.3677 2.1001q0 1.0903 0.4458 1.7134 0.45117 0.61768 1.2354 0.61768 0.78418 0 1.2354-0.61768 0.45117-0.62305 0.45117-1.7134 0-1.0903-0.45117-1.708-0.45117-0.62305-1.2354-0.62305-0.78418 0-1.2354 0.62305-0.4458 0.61768-0.4458 1.708z"/>
</g>
<g id="text26" fill="#010101" fill-opacity=".3">
<path id="path3381" d="m44.717 6.6426v0.82178h-0.94531q-0.53174 0-0.74121 0.21484-0.2041 0.21484-0.2041 0.77344v0.53174h1.6274v0.76807h-1.6274v5.2476h-0.99365v-5.2476h-0.94531v-0.76807h0.94531v-0.41895q0-1.0044 0.46728-1.4609 0.46728-0.46191 1.4824-0.46191h0.93457z"/>
<path id="path3383" d="m48.272 11.976q-1.1978 0-1.6597 0.27393-0.46191 0.27393-0.46191 0.93457 0 0.52637 0.34375 0.83789 0.34912 0.30615 0.94531 0.30615 0.82178 0 1.3159-0.58008 0.49951-0.58545 0.49951-1.5522v-0.22022h-0.98291zm1.9712-0.4082v3.4321h-0.98828v-0.91309q-0.33838 0.54785-0.84326 0.81104-0.50488 0.25781-1.2354 0.25781-0.92383 0-1.4717-0.51562-0.54248-0.521-0.54248-1.3911 0-1.0151 0.67676-1.5308 0.68213-0.51562 2.0303-0.51562h1.3857v-0.09668q0-0.68213-0.45117-1.0527-0.4458-0.37598-1.2568-0.37598-0.51562 0-1.0044 0.12354-0.48877 0.12354-0.93994 0.37061v-0.91309q0.54248-0.20947 1.0527-0.31152 0.51025-0.10742 0.99365-0.10742 1.3052 0 1.9497 0.67676 0.64453 0.67676 0.64453 2.0518z"/>
<path id="path3385" d="m52.285 8.9844h0.98828v6.0156h-0.98828v-6.0156zm0-2.3418h0.98828v1.2515h-0.98828v-1.2515z"/>
<path id="path3387" d="m55.335 6.6426h0.98828v8.3574h-0.98828v-8.3574z"/>
<path id="path3389" d="m58.386 8.9844h0.98828v6.0156h-0.98828v-6.0156zm0-2.3418h0.98828v1.2515h-0.98828v-1.2515z"/>
<path id="path3391" d="m66.438 11.369v3.6309h-0.98828v-3.5986q0-0.854-0.33301-1.2783-0.33301-0.42432-0.99902-0.42432-0.80029 0-1.2622 0.51025t-0.46191 1.3911v3.3999h-0.99365v-6.0156h0.99365v0.93457q0.35449-0.54248 0.83252-0.81104 0.4834-0.26855 1.1118-0.26855 1.0366 0 1.5684 0.64453 0.53174 0.63916 0.53174 1.8853z"/>
<path id="path3393" d="m72.378 11.922q0-1.0742-0.4458-1.665-0.44043-0.59082-1.2407-0.59082-0.79492 0-1.2407 0.59082-0.44043 0.59082-0.44043 1.665 0 1.0688 0.44043 1.6597 0.4458 0.59082 1.2407 0.59082 0.80029 0 1.2407-0.59082 0.4458-0.59082 0.4458-1.6597zm0.98828 2.3311q0 1.5361-0.68213 2.2827-0.68213 0.75195-2.0894 0.75195-0.521 0-0.98291-0.08057-0.46191-0.0752-0.89697-0.23633v-0.96142q0.43506 0.23633 0.85938 0.34912t0.86475 0.11279q0.97217 0 1.4556-0.51025 0.4834-0.50488 0.4834-1.5308v-0.48877q-0.306 0.532-0.784 0.795t-1.144 0.263q-1.1064 0-1.7832-0.84326-0.67676-0.84326-0.67676-2.2344 0-1.3965 0.67676-2.2397 0.67676-0.84326 1.7832-0.84326 0.66602 0 1.144 0.26318 0.47803 0.26318 0.78418 0.79492v-0.91309h0.98828v5.269z"/>
</g>
<g id="text28">
<path id="path3467" d="m44.717 5.6426v0.82178h-0.94531q-0.53174 0-0.74121 0.21484-0.2041 0.21484-0.2041 0.77344v0.53174h1.6274v0.76807h-1.6274v5.2476h-0.99365v-5.2476h-0.94531v-0.76807h0.94531v-0.41895q0-1.0044 0.46728-1.4609 0.46728-0.46191 1.4824-0.46191h0.93457z"/>
<path id="path3469" d="m48.272 10.976q-1.1978 0-1.6597 0.27393-0.46191 0.27393-0.46191 0.93457 0 0.52637 0.34375 0.83789 0.34912 0.30615 0.94531 0.30615 0.82178 0 1.3159-0.58008 0.49951-0.58545 0.49951-1.5522v-0.22022h-0.98291zm1.9712-0.4082v3.4321h-0.98828v-0.91309q-0.33838 0.54785-0.84326 0.81104-0.50488 0.25781-1.2354 0.25781-0.92383 0-1.4717-0.51562-0.54248-0.521-0.54248-1.3911 0-1.0151 0.67676-1.5308 0.68213-0.51562 2.0303-0.51562h1.3857v-0.09668q0-0.68213-0.45117-1.0527-0.4458-0.37598-1.2568-0.37598-0.51562 0-1.0044 0.12354-0.48877 0.12354-0.93994 0.37061v-0.91309q0.54248-0.20947 1.0527-0.31152 0.51025-0.10742 0.99365-0.10742 1.3052 0 1.9497 0.67676 0.64453 0.67676 0.64453 2.0518z"/>
<path id="path3471" d="m52.285 7.9844h0.98828v6.0156h-0.98828v-6.0156zm0-2.3418h0.98828v1.2515h-0.98828v-1.2515z"/>
<path id="path3473" d="m55.335 5.6426h0.98828v8.3574h-0.98828v-8.3574z"/>
<path id="path3475" d="m58.386 7.9844h0.98828v6.0156h-0.98828v-6.0156zm0-2.3418h0.98828v1.2515h-0.98828v-1.2515z"/>
<path id="path3477" d="m66.438 10.369v3.6309h-0.98828v-3.5986q0-0.854-0.33301-1.2783-0.33301-0.42432-0.99902-0.42432-0.80029 0-1.2622 0.51025t-0.46191 1.3911v3.3999h-0.99365v-6.0156h0.99365v0.93457q0.35449-0.54248 0.83252-0.81104 0.4834-0.26855 1.1118-0.26855 1.0366 0 1.5684 0.64453 0.53174 0.63916 0.53174 1.8853z"/>
<path id="path3479" d="m72.378 10.922q0-1.0742-0.4458-1.665-0.44043-0.59082-1.2407-0.59082-0.79492 0-1.2407 0.59082-0.44043 0.59082-0.44043 1.665 0 1.0688 0.44043 1.6597 0.4458 0.59082 1.2407 0.59082 0.80029 0 1.2407-0.59082 0.4458-0.59082 0.4458-1.6597zm0.98828 2.3311q0 1.5361-0.68213 2.2827-0.68213 0.75195-2.0894 0.75195-0.521 0-0.98291-0.08057-0.46191-0.0752-0.89697-0.23633v-0.96142q0.43506 0.23633 0.85938 0.34912t0.86475 0.11279q0.97217 0 1.4556-0.51025 0.4834-0.50488 0.4834-1.5308v-0.48877q-0.306 0.532-0.784 0.795t-1.144 0.263q-1.1064 0-1.7832-0.84326-0.67676-0.84326-0.67676-2.2344 0-1.3965 0.67676-2.2397 0.67676-0.84326 1.7832-0.84326 0.66602 0 1.144 0.26318 0.47803 0.26318 0.78418 0.79492v-0.91309h0.98828v5.269z"/>
</g>
</g>
</g>
<circle id="path3373" style="color-rendering:auto;color:#000000;isolation:auto;mix-blend-mode:normal;shape-rendering:auto;solid-color:#000000;image-rendering:auto" cx="224.97" stroke="#ff69b4" cy="225.03" r="197.09" stroke-width="51.825" fill="none"/>
<path id="path4175" d="m86.981 87.043 275.98 275.98" stroke="#ff69b4" stroke-width="51.825" fill="none"/>
</svg>
