<?xml version="1.0" encoding="UTF-8" standalone="no"?>
<svg
   xmlns:dc="http://purl.org/dc/elements/1.1/"
   xmlns:cc="http://creativecommons.org/ns#"
   xmlns:rdf="http://www.w3.org/1999/02/22-rdf-syntax-ns#"
   xmlns:svg="http://www.w3.org/2000/svg"
   xmlns="http://www.w3.org/2000/svg"
   xmlns:xlink="http://www.w3.org/1999/xlink"
   xmlns:sodipodi="http://sodipodi.sourceforge.net/DTD/sodipodi-0.dtd"
   xmlns:inkscape="http://www.inkscape.org/namespaces/inkscape"
   width="450"
   height="450"
   id="svg2"
   version="1.1"
   inkscape:version="0.91 r13725"
   sodipodi:docname="no-more-broken-master.svg">
  <metadata
     id="metadata34">
    <rdf:RDF>
      <cc:Work
         rdf:about="">
        <dc:format>image/svg+xml</dc:format>
        <dc:type
           rdf:resource="http://purl.org/dc/dcmitype/StillImage" />
        <dc:title />
      </cc:Work>
    </rdf:RDF>
  </metadata>
  <defs
     id="defs32">
    <mask
       id="a-3">
      <rect
         width="80"
         height="20"
         rx="3"
         id="rect10-6"
         x="0"
         y="0"
         style="fill:#ffffff" />
    </mask>
    <linearGradient
       id="linearGradient4244"
       x2="0"
       y2="40"
       gradientTransform="scale(2,0.5)"
       x1="0"
       y1="0"
       gradientUnits="userSpaceOnUse">
      <stop
         offset="0"
         stop-color="#bbb"
         stop-opacity=".1"
         id="stop5-7" />
      <stop
         offset="1"
         stop-opacity=".1"
         id="stop7-5" />
    </linearGradient>
    <clipPath
       clipPathUnits="userSpaceOnUse"
       id="clipPath4264">
      <rect
         style="color:#000000;clip-rule:nonzero;overflow:visible;visibility:visible;opacity:1;isolation:auto;mix-blend-mode:normal;color-interpolation:sRGB;color-interpolation-filters:linearRGB;solid-color:#000000;solid-opacity:1;fill:none;fill-opacity:1;fill-rule:nonzero;stroke:#ff69b4;stroke-width:10;stroke-linecap:butt;stroke-linejoin:miter;stroke-miterlimit:4;stroke-dasharray:none;stroke-dashoffset:0;stroke-opacity:1;color-rendering:auto;image-rendering:auto;shape-rendering:auto;text-rendering:auto;enable-background:accumulate"
         id="rect4266"
         width="26.255777"
         height="33.281971"
         x="-8.5747299"
         y="64.106316" />
    </clipPath>
    <linearGradient
       inkscape:collect="always"
       xlink:href="#b"
       id="linearGradient3367"
       gradientUnits="userSpaceOnUse"
       gradientTransform="scale(2,0.5)"
       x1="0"
       y1="0"
       x2="0"
       y2="40" />
  </defs>
  <sodipodi:namedview
     pagecolor="#ffffff"
     bordercolor="#666666"
     borderopacity="1"
     objecttolerance="10"
     gridtolerance="10"
     guidetolerance="10"
     inkscape:pageopacity="0"
     inkscape:pageshadow="2"
     inkscape:window-width="1957"
     inkscape:window-height="1209"
     id="namedview30"
     showgrid="false"
     inkscape:zoom="1.0140625"
     inkscape:cx="25.51619"
     inkscape:cy="202.04931"
     inkscape:window-x="58"
     inkscape:window-y="43"
     inkscape:window-maximized="0"
     inkscape:current-layer="svg2" />
  <linearGradient
     id="b"
     x2="0"
     y2="40"
     gradientTransform="scale(2,0.5)"
     x1="0"
     y1="0"
     gradientUnits="userSpaceOnUse">
    <stop
       offset="0"
       stop-color="#bbb"
       stop-opacity=".1"
       id="stop5" />
    <stop
       offset="1"
       stop-opacity=".1"
       id="stop7" />
  </linearGradient>
  <mask
     id="a">
    <rect
       width="80"
       height="20"
       rx="3"
       id="rect10"
       x="0"
       y="0"
       style="fill:#ffffff" />
  </mask>
  <g
     id="g3362"
     transform="matrix(5.1825459,0,0,5.1825459,17.667349,-189.57285)">
    <g
       transform="translate(0,70)"
       id="g12"
       mask="url(#a)">
      <path
         style="fill:#555555"
         inkscape:connector-curvature="0"
         id="path14"
         d="M 0,0 37,0 37,20 0,20 Z" />
      <path
         style="fill:#e05d44"
         inkscape:connector-curvature="0"
         id="path16"
         d="m 37,0 43,0 0,20 -43,0 z" />
      <path
         style="fill:url(#linearGradient3367)"
         inkscape:connector-curvature="0"
         id="path18"
         d="M 0,0 80,0 80,20 0,20 Z" />
    </g>
    <g
       transform="translate(0,70)"
       style="font-size:11px;font-family:'DejaVu Sans', Verdana, Geneva, sans-serif;text-anchor:middle;fill:#ffffff"
       id="g20"
       font-size="11">
      <g
         style="fill:#010101;fill-opacity:0.3"
         id="text22">
        <path
           d="m 10.330566,11.997559 q 0,-1.090332 -0.4511715,-1.708008 -0.4458007,-0.6230471 -1.2299804,-0.6230471 -0.7841797,0 -1.2353516,0.6230471 -0.4458008,0.617676 -0.4458008,1.708008 0,1.090332 0.4458008,1.713379 0.4511719,0.617675 1.2353516,0.617675 0.7841797,0 1.2299804,-0.617675 0.4511715,-0.623047 0.4511715,-1.713379 z M 6.9682617,9.8974609 Q 7.2797852,9.3603516 7.7524414,9.1025391 8.2304688,8.8393555 8.8911133,8.8393555 q 1.0957031,0 1.7778317,0.8701172 0.6875,0.8701173 0.6875,2.2880863 0,1.417968 -0.6875,2.288086 -0.6821286,0.870117 -1.7778317,0.870117 -0.6606445,0 -1.1386719,-0.257813 -0.4726562,-0.263183 -0.7841797,-0.800293 l 0,0.902344 -0.9936523,0 0,-8.3574219 0.9936523,0 0,3.2548828 z"
           style="fill:#010101;fill-opacity:0.3"
           id="path3370" />
        <path
           d="m 12.892578,12.625977 0,-3.641602 0.988281,0 0,3.604004 q 0,0.854004 0.333008,1.283691 0.333008,0.424317 0.999024,0.424317 0.800293,0 1.262207,-0.510254 0.467285,-0.510254 0.467285,-1.391113 l 0,-3.410645 0.988281,0 0,6.015625 -0.988281,0 0,-0.923828 q -0.359863,0.547851 -0.837891,0.816406 -0.472656,0.263184 -1.101074,0.263184 -1.036621,0 -1.57373,-0.644532 -0.53711,-0.644531 -0.53711,-1.885253 z m 2.486817,-3.7866215 0,0 z"
           style="fill:#010101;fill-opacity:0.3"
           id="path3372" />
        <path
           d="m 19.977051,8.984375 0.988281,0 0,6.015625 -0.988281,0 0,-6.015625 z m 0,-2.3417969 0.988281,0 0,1.2514649 -0.988281,0 0,-1.2514649 z"
           style="fill:#010101;fill-opacity:0.3"
           id="path3374" />
        <path
           d="m 23.027832,6.6425781 0.988281,0 0,8.3574219 -0.988281,0 0,-8.3574219 z"
           style="fill:#010101;fill-opacity:0.3"
           id="path3376" />
        <path
           d="m 30.037109,9.8974609 0,-3.2548828 0.988282,0 0,8.3574219 -0.988282,0 0,-0.902344 q -0.311523,0.53711 -0.78955,0.800293 -0.472657,0.257813 -1.138672,0.257813 -1.090332,0 -1.777832,-0.870117 -0.682129,-0.870118 -0.682129,-2.288086 0,-1.417969 0.682129,-2.2880863 0.6875,-0.8701172 1.777832,-0.8701172 0.666015,0 1.138672,0.2631836 0.478027,0.2578125 0.78955,0.7949218 z m -3.367675,2.1000981 q 0,1.090332 0.4458,1.713379 0.451172,0.617675 1.235352,0.617675 0.78418,0 1.235351,-0.617675 0.451172,-0.623047 0.451172,-1.713379 0,-1.090332 -0.451172,-1.708008 -0.451171,-0.6230471 -1.235351,-0.6230471 -0.78418,0 -1.235352,0.6230471 -0.4458,0.617676 -0.4458,1.708008 z"
           style="fill:#010101;fill-opacity:0.3"
           id="path3378" />
      </g>
      <g
         id="text24">
        <path
           d="m 10.330566,10.997559 q 0,-1.0903324 -0.4511715,-1.7080082 -0.4458007,-0.6230469 -1.2299804,-0.6230469 -0.7841797,0 -1.2353516,0.6230469 -0.4458008,0.6176758 -0.4458008,1.7080082 0,1.090332 0.4458008,1.713379 0.4511719,0.617675 1.2353516,0.617675 0.7841797,0 1.2299804,-0.617675 0.4511715,-0.623047 0.4511715,-1.713379 z M 6.9682617,8.8974609 Q 7.2797852,8.3603516 7.7524414,8.1025391 8.2304688,7.8393555 8.8911133,7.8393555 q 1.0957031,0 1.7778317,0.8701172 0.6875,0.8701171 0.6875,2.2880863 0,1.417968 -0.6875,2.288086 -0.6821286,0.870117 -1.7778317,0.870117 -0.6606445,0 -1.1386719,-0.257813 -0.4726562,-0.263183 -0.7841797,-0.800293 l 0,0.902344 -0.9936523,0 0,-8.3574219 0.9936523,0 0,3.2548828 z"
           id="path3358"
           inkscape:connector-curvature="0" />
        <path
           d="m 12.892578,11.625977 0,-3.641602 0.988281,0 0,3.604004 q 0,0.854004 0.333008,1.283691 0.333008,0.424317 0.999024,0.424317 0.800293,0 1.262207,-0.510254 0.467285,-0.510254 0.467285,-1.391113 l 0,-3.410645 0.988281,0 0,6.015625 -0.988281,0 0,-0.923828 q -0.359863,0.547851 -0.837891,0.816406 -0.472656,0.263184 -1.101074,0.263184 -1.036621,0 -1.57373,-0.644532 -0.53711,-0.644531 -0.53711,-1.885253 z m 2.486817,-3.7866215 0,0 z"
           id="path3360"
           inkscape:connector-curvature="0" />
        <path
           d="m 19.977051,7.984375 0.988281,0 0,6.015625 -0.988281,0 0,-6.015625 z m 0,-2.3417969 0.988281,0 0,1.2514649 -0.988281,0 0,-1.2514649 z"
           id="path3362"
           inkscape:connector-curvature="0" />
        <path
           d="m 23.027832,5.6425781 0.988281,0 0,8.3574219 -0.988281,0 0,-8.3574219 z"
           id="path3364"
           inkscape:connector-curvature="0" />
        <path
           d="m 30.037109,8.8974609 0,-3.2548828 0.988282,0 0,8.3574219 -0.988282,0 0,-0.902344 q -0.311523,0.53711 -0.78955,0.800293 -0.472657,0.257813 -1.138672,0.257813 -1.090332,0 -1.777832,-0.870117 -0.682129,-0.870118 -0.682129,-2.288086 0,-1.4179692 0.682129,-2.2880863 0.6875,-0.8701172 1.777832,-0.8701172 0.666015,0 1.138672,0.2631836 0.478027,0.2578125 0.78955,0.7949218 z m -3.367675,2.1000981 q 0,1.090332 0.4458,1.713379 0.451172,0.617675 1.235352,0.617675 0.78418,0 1.235351,-0.617675 0.451172,-0.623047 0.451172,-1.713379 0,-1.0903324 -0.451172,-1.7080082 -0.451171,-0.6230469 -1.235351,-0.6230469 -0.78418,0 -1.235352,0.6230469 -0.4458,0.6176758 -0.4458,1.7080082 z"
           id="path3366"
           inkscape:connector-curvature="0" />
      </g>
      <g
         style="fill:#010101;fill-opacity:0.3"
         id="text26">
        <path
           d="m 44.716797,6.6425781 0,0.8217774 -0.945313,0 q -0.531738,0 -0.741211,0.2148437 -0.204101,0.2148438 -0.204101,0.7734375 l 0,0.5317383 1.627441,0 0,0.7680664 -1.627441,0 0,5.2475586 -0.993652,0 0,-5.2475586 -0.945313,0 0,-0.7680664 0.945313,0 0,-0.4189453 q 0,-1.0043945 0.467285,-1.4609375 0.467285,-0.4619141 1.482422,-0.4619141 l 0.93457,0 z"
           style="fill:#010101;fill-opacity:0.3"
           id="path3381" />
        <path
           d="m 48.272461,11.976074 q -1.197754,0 -1.659668,0.273926 -0.461914,0.273926 -0.461914,0.93457 0,0.526368 0.34375,0.837891 0.349121,0.306152 0.945312,0.306152 0.821778,0 1.315918,-0.580078 0.499512,-0.585449 0.499512,-1.552246 l 0,-0.220215 -0.98291,0 z m 1.971191,-0.408203 0,3.432129 -0.988281,0 0,-0.913086 q -0.338379,0.547852 -0.843262,0.811035 -0.504882,0.257813 -1.235351,0.257813 -0.923828,0 -1.47168,-0.515625 -0.54248,-0.520996 -0.54248,-1.391114 0,-1.015136 0.676757,-1.530761 0.682129,-0.515625 2.030274,-0.515625 l 1.385742,0 0,-0.09668 q 0,-0.682129 -0.451172,-1.052734 -0.445801,-0.3759769 -1.256836,-0.3759769 -0.515625,0 -1.004394,0.1235352 -0.48877,0.1235351 -0.939942,0.3706057 l 0,-0.9130862 q 0.542481,-0.2094727 1.052735,-0.3115235 0.510254,-0.1074218 0.993652,-0.1074218 1.305176,0 1.949707,0.6767578 0.644531,0.6767577 0.644531,2.0517577 z"
           style="fill:#010101;fill-opacity:0.3"
           id="path3383" />
        <path
           d="m 52.284668,8.984375 0.988281,0 0,6.015625 -0.988281,0 0,-6.015625 z m 0,-2.3417969 0.988281,0 0,1.2514649 -0.988281,0 0,-1.2514649 z"
           style="fill:#010101;fill-opacity:0.3"
           id="path3385" />
        <path
           d="m 55.335449,6.6425781 0.988281,0 0,8.3574219 -0.988281,0 0,-8.3574219 z"
           style="fill:#010101;fill-opacity:0.3"
           id="path3387" />
        <path
           d="m 58.38623,8.984375 0.988282,0 0,6.015625 -0.988282,0 0,-6.015625 z m 0,-2.3417969 0.988282,0 0,1.2514649 -0.988282,0 0,-1.2514649 z"
           style="fill:#010101;fill-opacity:0.3"
           id="path3389" />
        <path
           d="m 66.4375,11.369141 0,3.630859 -0.988281,0 0,-3.598633 q 0,-0.854004 -0.333008,-1.27832 -0.333008,-0.4243165 -0.999024,-0.4243165 -0.800292,0 -1.262207,0.5102535 -0.461914,0.510254 -0.461914,1.391114 l 0,3.399902 -0.993652,0 0,-6.015625 0.993652,0 0,0.9345703 q 0.354493,-0.5424805 0.83252,-0.8110351 0.483398,-0.2685547 1.111816,-0.2685547 1.036621,0 1.56836,0.6445312 0.531738,0.6391603 0.531738,1.8852543 z"
           style="fill:#010101;fill-opacity:0.3"
           id="path3391" />
        <path
           d="m 72.37793,11.922363 q 0,-1.074218 -0.445801,-1.665039 -0.44043,-0.5908201 -1.240723,-0.5908201 -0.794922,0 -1.240722,0.5908201 -0.44043,0.590821 -0.44043,1.665039 0,1.068848 0.44043,1.659668 0.4458,0.590821 1.240722,0.590821 0.800293,0 1.240723,-0.590821 0.445801,-0.59082 0.445801,-1.659668 z m 0.988281,2.331055 q 0,1.536133 -0.682129,2.282715 -0.682129,0.751953 -2.089355,0.751953 -0.520997,0 -0.982911,-0.08057 -0.461914,-0.0752 -0.896972,-0.236329 l 0,-0.961425 q 0.435058,0.236328 0.859375,0.349121 0.424316,0.112793 0.864746,0.112793 0.972168,0 1.455566,-0.510254 0.483399,-0.504883 0.483399,-1.530762 l 0,-0.488769 Q 72.071777,14.473633 71.59375,14.736816 71.115723,15 70.449707,15 q -1.106445,0 -1.783203,-0.843262 -0.676758,-0.843261 -0.676758,-2.234375 0,-1.396484 0.676758,-2.2397458 0.676758,-0.8432617 1.783203,-0.8432617 0.666016,0 1.144043,0.2631836 0.478027,0.2631836 0.78418,0.7949218 l 0,-0.9130859 0.988281,0 0,5.269043 z"
           style="fill:#010101;fill-opacity:0.3"
           id="path3393" />
      </g>
      <g
         id="text28">
        <path
           d="m 44.716797,5.6425781 0,0.8217774 -0.945313,0 q -0.531738,0 -0.741211,0.2148437 -0.204101,0.2148438 -0.204101,0.7734375 l 0,0.5317383 1.627441,0 0,0.7680664 -1.627441,0 0,5.2475586 -0.993652,0 0,-5.2475586 -0.945313,0 0,-0.7680664 0.945313,0 0,-0.4189453 q 0,-1.0043945 0.467285,-1.4609375 0.467285,-0.4619141 1.482422,-0.4619141 l 0.93457,0 z"
           id="path3467"
           inkscape:connector-curvature="0" />
        <path
           d="m 48.272461,10.976074 q -1.197754,0 -1.659668,0.273926 -0.461914,0.273926 -0.461914,0.93457 0,0.526368 0.34375,0.837891 0.349121,0.306152 0.945312,0.306152 0.821778,0 1.315918,-0.580078 0.499512,-0.585449 0.499512,-1.552246 l 0,-0.220215 -0.98291,0 z m 1.971191,-0.408203 0,3.432129 -0.988281,0 0,-0.913086 q -0.338379,0.547852 -0.843262,0.811035 -0.504882,0.257813 -1.235351,0.257813 -0.923828,0 -1.47168,-0.515625 -0.54248,-0.520996 -0.54248,-1.391114 0,-1.015136 0.676757,-1.530761 0.682129,-0.515625 2.030274,-0.515625 l 1.385742,0 0,-0.09668 q 0,-0.6821289 -0.451172,-1.0527343 -0.445801,-0.3759766 -1.256836,-0.3759766 -0.515625,0 -1.004394,0.1235352 -0.48877,0.1235351 -0.939942,0.3706054 l 0,-0.9130859 q 0.542481,-0.2094727 1.052735,-0.3115235 0.510254,-0.1074218 0.993652,-0.1074218 1.305176,0 1.949707,0.6767578 0.644531,0.6767578 0.644531,2.0517577 z"
           id="path3469"
           inkscape:connector-curvature="0" />
        <path
           d="m 52.284668,7.984375 0.988281,0 0,6.015625 -0.988281,0 0,-6.015625 z m 0,-2.3417969 0.988281,0 0,1.2514649 -0.988281,0 0,-1.2514649 z"
           id="path3471"
           inkscape:connector-curvature="0" />
        <path
           d="m 55.335449,5.6425781 0.988281,0 0,8.3574219 -0.988281,0 0,-8.3574219 z"
           id="path3473"
           inkscape:connector-curvature="0" />
        <path
           d="m 58.38623,7.984375 0.988282,0 0,6.015625 -0.988282,0 0,-6.015625 z m 0,-2.3417969 0.988282,0 0,1.2514649 -0.988282,0 0,-1.2514649 z"
           id="path3475"
           inkscape:connector-curvature="0" />
        <path
           d="m 66.4375,10.369141 0,3.630859 -0.988281,0 0,-3.598633 q 0,-0.8540037 -0.333008,-1.2783201 -0.333008,-0.4243164 -0.999024,-0.4243164 -0.800292,0 -1.262207,0.5102539 -0.461914,0.5102539 -0.461914,1.3911136 l 0,3.399902 -0.993652,0 0,-6.015625 0.993652,0 0,0.9345703 q 0.354493,-0.5424805 0.83252,-0.8110351 0.483398,-0.2685547 1.111816,-0.2685547 1.036621,0 1.56836,0.6445312 0.531738,0.6391602 0.531738,1.8852543 z"
           id="path3477"
           inkscape:connector-curvature="0" />
        <path
           d="m 72.37793,10.922363 q 0,-1.0742185 -0.445801,-1.6650388 -0.44043,-0.5908203 -1.240723,-0.5908203 -0.794922,0 -1.240722,0.5908203 -0.44043,0.5908203 -0.44043,1.6650388 0,1.068848 0.44043,1.659668 0.4458,0.590821 1.240722,0.590821 0.800293,0 1.240723,-0.590821 0.445801,-0.59082 0.445801,-1.659668 z m 0.988281,2.331055 q 0,1.536133 -0.682129,2.282715 -0.682129,0.751953 -2.089355,0.751953 -0.520997,0 -0.982911,-0.08057 -0.461914,-0.0752 -0.896972,-0.236329 l 0,-0.961425 q 0.435058,0.236328 0.859375,0.349121 0.424316,0.112793 0.864746,0.112793 0.972168,0 1.455566,-0.510254 0.483399,-0.504883 0.483399,-1.530762 l 0,-0.488769 Q 72.071777,13.473633 71.59375,13.736816 71.115723,14 70.449707,14 q -1.106445,0 -1.783203,-0.843262 -0.676758,-0.843261 -0.676758,-2.234375 0,-1.3964841 0.676758,-2.2397458 0.676758,-0.8432617 1.783203,-0.8432617 0.666016,0 1.144043,0.2631836 0.478027,0.2631836 0.78418,0.7949218 l 0,-0.9130859 0.988281,0 0,5.269043 z"
           id="path3479"
           inkscape:connector-curvature="0" />
      </g>
    </g>
  </g>
  <circle
     style="color:#000000;clip-rule:nonzero;display:inline;overflow:visible;visibility:visible;opacity:1;isolation:auto;mix-blend-mode:normal;color-interpolation:sRGB;color-interpolation-filters:linearRGB;solid-color:#000000;solid-opacity:1;fill:none;fill-opacity:1;fill-rule:nonzero;stroke:#ff69b4;stroke-width:51.82545853;stroke-linecap:butt;stroke-linejoin:miter;stroke-miterlimit:4;stroke-dasharray:none;stroke-dashoffset:0;stroke-opacity:1;color-rendering:auto;image-rendering:auto;shape-rendering:auto;text-rendering:auto;enable-background:accumulate"
     id="path3373"
     cx="224.96918"
     cy="225.03082"
     r="197.08508" />
  <path
     style="fill:none;fill-rule:evenodd;stroke:#ff69b4;stroke-width:51.82545853;stroke-linecap:butt;stroke-linejoin:miter;stroke-miterlimit:4;stroke-dasharray:none;stroke-opacity:1"
     d="M 86.980904,87.042528 362.95746,363.01911"
     id="path4175"
     inkscape:connector-curvature="0" />
</svg>
